<?xml version="1.0" encoding="utf-8"?>
<!-- Generator: Adobe Illustrator 17.0.1, SVG Export Plug-In . SVG Version: 6.00 Build 0)  -->
<svg version="1.2" baseProfile="tiny" id="图层_1"
	 xmlns="http://www.w3.org/2000/svg" xmlns:xlink="http://www.w3.org/1999/xlink" x="0px" y="0px" width="1000px" height="558px"
	 viewBox="0 0 1000 558" overflow="scroll" xml:space="preserve">
<polyline fill="none" stroke="#999" stroke-miterlimit="10" points="0,61.667 229.667,104.333 367.019,49.191 "/>
<polyline fill="none" stroke="#999" stroke-miterlimit="10" points="0,74.667 231.333,115 386.25,55.667 "/>
<line fill="none" stroke="#999" stroke-miterlimit="10" x1="214.667" y1="0" x2="395.333" y2="58.333"/>
<polyline fill="none" stroke="#999" stroke-miterlimit="10" points="0,143.667 106.333,155.667 188,121.667 "/>
<line fill="none" stroke="#999" stroke-miterlimit="10" x1="0" y1="90.333" x2="210.667" y2="124.667"/>
<polyline fill="none" stroke="#999" stroke-miterlimit="10" points="0,155.667 124.25,168.125 123.5,173.25 139.125,174.25 
	691.25,0 "/>
<polyline fill="none" stroke="#999" stroke-miterlimit="10" points="789.625,0 967.375,131.5 1000,129.25 "/>
<polyline fill="none" stroke="#999" stroke-miterlimit="10" points="775.417,0.25 967.208,138.792 967.5,386.417 
	965.844,389.656 965.75,404.5 994,404.5 "/>
<line fill="none" stroke="#999" stroke-miterlimit="10" x1="967" y1="386.5" x2="1000" y2="386.5"/>
<line fill="none" stroke="#999" stroke-miterlimit="10" x1="966" y1="395.5" x2="991" y2="395.5"/>
<polyline fill="none" stroke="#999" stroke-miterlimit="10" points="432.333,130.813 665.423,74.947 840,145.667 "/>
<polyline fill="none" stroke="#999" stroke-miterlimit="10" points="451.52,126.17 458.5,127.833 458.5,136 483.275,141.129 
	706.416,91.552 687.642,83.947 458.5,136 458.5,127.833 672.559,77.837 "/>
<polyline fill="none" stroke="#999" stroke-miterlimit="10" points="504.993,136.304 555.5,147.167 555.5,155 607.917,145.333 
	539,129.5 531.5,131 581.667,142.75 555.5,147.167 "/>
<polyline fill="none" stroke="#999" stroke-miterlimit="10" points="567.375,157.542 619.625,149 674.833,161.333 639,165.125 
	588.667,154.5 "/>
<polyline fill="none" stroke="#999" stroke-miterlimit="10" points="784.351,123.123 658.5,143.167 709.167,157.063 "/>
<polyline fill="none" stroke="#999" stroke-miterlimit="10" points="674.385,161.233 689.438,164.625 707.257,162.771 
	642.375,145.667 658.5,143.167 "/>
<polyline fill="none" stroke="#999" stroke-miterlimit="10" points="613.744,149.961 639.5,156 639.5,171 "/>
<polyline fill="none" stroke="#999" stroke-miterlimit="10" points="431.875,131.5 639.5,171 842.125,146.5 826.911,140.365 
	709.167,157.063 679.349,148.885 804,131.5 "/>
<polyline fill="none" stroke="#999" stroke-miterlimit="10" points="574.351,120.894 628,135.375 757,112.375 "/>
<polyline fill="none" stroke="#999" stroke-miterlimit="10" points="555.57,125.067 628.667,143.167 772.733,118.417 "/>
<line fill="none" stroke="#999" stroke-miterlimit="10" x1="598.583" y1="195.667" x2="607.167" y2="196.917"/>
<line fill="none" stroke="#999" stroke-miterlimit="10" x1="623.938" y1="197.938" x2="633.188" y2="196.917"/>
<line fill="none" stroke="#999" stroke-miterlimit="10" x1="685.167" y1="192.5" x2="694.25" y2="191.417"/>
<line fill="none" stroke="#999" stroke-miterlimit="10" x1="706.416" y1="190" x2="965" y2="165.125"/>
<line fill="none" stroke="#999" stroke-miterlimit="10" x1="254.25" y1="147.167" x2="747.75" y2="0.25"/>
<polyline fill="none" stroke="#999" stroke-miterlimit="10" points="150.667,171 278,183.833 370.75,164.375 "/>
<line fill="none" stroke="#999" stroke-miterlimit="10" x1="0" y1="161.75" x2="181" y2="180.75"/>
<line fill="none" stroke="#999" stroke-miterlimit="10" x1="0" y1="168" x2="179.25" y2="185.5"/>
<line fill="none" stroke="#999" stroke-miterlimit="10" x1="0" y1="171.25" x2="179.25" y2="188"/>
<polyline fill="none" stroke="#999" stroke-miterlimit="10" points="0.167,175.583 23.5,178 23.5,212 0.167,211.333 "/>
<polyline fill="none" stroke="#999" stroke-miterlimit="10" points="0.167,213.833 23.5,214.792 23.167,249.5 0,249.5 "/>
<polyline fill="none" stroke="#999" stroke-miterlimit="10" points="0,251.5 23.5,251.5 23.5,286.5 0,286.5 "/>
<polyline fill="none" stroke="#999" stroke-miterlimit="10" points="0,288.5 23.5,288.5 23.5,323.167 -0.25,323.917 "/>
<polyline fill="none" stroke="#999" stroke-miterlimit="10" points="-0.5,325.875 23.5,325.167 23.5,335 "/>
<polyline fill="none" stroke="#999" stroke-miterlimit="10" points="66.375,182.083 89.5,183.833 89.5,216 66.5,215 
	66.375,181.833 "/>
<polyline fill="none" stroke="#999" stroke-miterlimit="10" points="40.5,216.542 64.5,217.542 64.5,250.5 41,250.5 
	40.833,216.75 "/>
<polyline fill="none" stroke="#999" stroke-miterlimit="10" points="66.219,217.688 89.5,218.75 89.5,251 66.5,250.5 
	66.375,218.094 "/>
<polyline fill="none" stroke="#999" stroke-miterlimit="10" points="40.907,252.6 64.5,252.75 64.5,286.5 41,286.5 40.907,252.6 
	"/>
<polygon fill="none" stroke="#999" stroke-miterlimit="10" points="66.5,252.558 89.5,253.167 89.5,286 66.5,286.5 "/>
<polygon fill="none" stroke="#999" stroke-miterlimit="10" points="41.5,288.625 64.5,288.505 64.5,321.03 41.5,321.542 "/>
<polygon fill="none" stroke="#999" stroke-miterlimit="10" points="66.5,288.5 89.5,288.5 89.667,320.5 66.5,320.833 "/>
<polyline fill="none" stroke="#999" stroke-miterlimit="10" points="41.5,331 41.5,324 64.5,323.917 64.5,356 49,356.333 "/>
<polygon fill="none" stroke="#999" stroke-miterlimit="10" points="66.5,323.917 90.173,323.415 90.583,355.167 66.5,356 "/>
<polygon fill="none" stroke="#999" stroke-miterlimit="10" points="97.5,184.656 119.5,186.5 119.5,217.333 97.5,216.542 "/>
<polygon fill="none" stroke="#999" stroke-miterlimit="10" points="121.5,186.75 141.5,188 141.5,218.417 121.5,217.333 "/>
<polygon fill="none" stroke="#999" stroke-miterlimit="10" points="97.5,218.667 119.5,219.5 119.5,251.5 97.917,251.5 "/>
<polygon fill="none" stroke="#999" stroke-miterlimit="10" points="121.5,219.833 141.917,220.708 141.5,251.5 121.5,251.5 "/>
<polygon fill="none" stroke="#999" stroke-miterlimit="10" points="97.5,253.5 119.5,253.5 119.5,285.125 97.5,285.375 "/>
<polygon fill="none" stroke="#999" stroke-miterlimit="10" points="121.5,253.875 141.5,254 141.5,285.125 121.5,285.063 "/>
<polygon fill="none" stroke="#999" stroke-miterlimit="10" points="98.333,287.5 119.5,287.5 119.5,319.25 98.502,319.575 "/>
<polygon fill="none" stroke="#999" stroke-miterlimit="10" points="121.5,287.5 141.5,287.5 141.5,318.583 121.5,318.917 "/>
<polygon fill="none" stroke="#999" stroke-miterlimit="10" points="98.5,321.833 119.676,321.542 119.625,351.61 98.5,352.083 
	"/>
<polyline fill="none" stroke="#999" stroke-miterlimit="10" points="142.333,344.458 141.917,320.854 121.542,321.219 
	121.917,351.5 130,351.5 "/>
<polygon fill="none" stroke="#999" stroke-miterlimit="10" points="156.5,222.333 174.5,222.75 174.5,252.5 156.583,252.5 "/>
<polygon fill="none" stroke="#999" stroke-miterlimit="10" points="156.5,254.5 175.5,254.5 175.5,285 156.5,285.204 "/>
<polygon fill="none" stroke="#999" stroke-miterlimit="10" points="156.5,287.042 175.5,286.667 175.5,317 156.5,317.333 "/>
<polyline fill="none" stroke="#999" stroke-miterlimit="10" points="175.5,325 175.5,319 156.5,319.575 156.5,346 "/>
<line fill="none" stroke="#999" stroke-miterlimit="10" x1="35.417" y1="174.56" x2="36.167" y2="330.083"/>
<line fill="none" stroke="#999" stroke-miterlimit="10" x1="28.5" y1="177" x2="29.833" y2="331.5"/>
<line fill="none" stroke="#999" stroke-miterlimit="10" x1="94.125" y1="181.833" x2="94.875" y2="359.125"/>
<line fill="none" stroke="#999" stroke-miterlimit="10" x1="146" y1="188" x2="147.167" y2="343.833"/>
<line fill="none" stroke="#999" stroke-miterlimit="10" x1="152.167" y1="186.75" x2="153" y2="343.833"/>
<polyline fill="none" stroke="#999" stroke-miterlimit="10" points="180.458,191.708 177.5,191.583 177.5,220.583 181,220.833 
	"/>
<polyline fill="none" stroke="#999" stroke-miterlimit="10" points="181.083,223.125 177.5,222.917 177.5,252.5 182,252.5 "/>
<polyline fill="none" stroke="#999" stroke-miterlimit="10" points="181.542,254.917 177.5,254.833 177.79,284.416 
	182.208,284.542 "/>
<polyline fill="none" stroke="#999" stroke-miterlimit="10" points="182,287.5 178,287.5 177.917,316.5 181,316.5 "/>
<path fill="none" stroke="#999" stroke-miterlimit="10" d="M181,175.25c0,0-0.167,1.75,1,3.333c0,0-1.75,3.083,0,4.75
	c0,0-2.508,5.292-0.504,11.792c0,0-1.871,2.75,0.504,6.875c0,0-1.5,1.417,0,4.208c0,0-1.75,4.542,0,7.542c0,0,0.75,2.042-1,3.583
	c0,0-1.021,1.583,1.208,3.5c0,0-2.583,3.229,0.354,6.479c0,0-2,3.75,0,8.313c0,0-2.063,2.958-0.354,7.208
	c0,0-1.083,2.333,0.354,4.333c0,0-1.144,3.025,0.197,5.783c0.049,0.1,0.101,0.201,0.157,0.3c0,0-2.667,2.75,0,6.25
	c0,0-3.083,2.75-0.708,6.833c0,0,1.875,0,0,5.083c0,0-1.042,2.083,0.833,4.333c0,0-2.375,3.583-0.833,6.583c0,0,0.636,4.667-0.328,6
	c0,0-1.547,3.75,0.119,6.25c0,0-1.989,4.25-0.119,7.417c0,0-2.703,4.833,0,8.083c0,0-1.464,2.667,0.328,4c0,0-1.875,2.083,0,3.667"
	/>
<path fill="none" stroke="#999" stroke-miterlimit="10" d="M196.875,197.25c0,0-3.125-7.875-14.875-3.75
	c0,0-1.542,2.125,1.042,2.5c0,0,10.708-2.625,11.958,2.625"/>
<path fill="none" stroke="#999" stroke-miterlimit="10" d="M195.875,234.375c0,0-3.625-4.938-12.25-0.563
	c0,0-2.063,1.438,1.125,1.813c0,0,11-2.729,10.75,1.792"/>
<path fill="none" stroke="#999" stroke-miterlimit="10" d="M193.333,289.25c0,0,4.833-0.083,2.75,1.333
	c0,0-5.279,3.5-14.223,1.083"/>
<path fill="none" stroke="#999" stroke-miterlimit="10" d="M193.833,301.25c0,0,4.25,0.167,0,2.833c0,0-5.583,2.667-12.333,1.75
	c0,0-1.667,1.417,0.708,1.583c0,0,13.125,2.417,12.125-2.667"/>
<path fill="none" stroke="#999" stroke-miterlimit="10" d="M198.5,181.625c0,0-2.25,1.875,0,6.375c0,0-2.5,3.5-0.5,6.375
	c0,0-1.75,3.25-1.125,5.5c0,0,2.855,3.625-0.135,7.625c0,0,1.615,1.625,0,5.375c0,0-0.375,3.167,0.88,4.458c0,0,1.255,2.958-0.932,5
	c0,0,1.75,4.542,0.906,5.792c0,0,5.031-3,8.031,0.625"/>
<path fill="none" stroke="#999" stroke-miterlimit="10" d="M197.25,233.375c0,0,1.5,1.458-0.562,4.042
	c0,0,1.772,3.583-0.083,6.333c0,0,1.145,4-0.73,10.75c0,0,2.875,3.125,0,7.75c0,0,1.569,4-0.153,6.625c0,0,1.777,6.875,1.027,10.625
	c0,0,1.699,4.25-0.145,8c0,0,1.519,3.125,0.145,6.625c0,0-1.5,2.5,0,4.75c0,0-1.68,3.616-1.027,5.745c0,0,1.296,2.255-0.151,4.005"
	/>
<path fill="none" stroke="#999" stroke-miterlimit="10" d="M206,207.25c0,0-3.667-4.083-7.333-2.917c0,0-1.667,1.667,0,1.875
	c0,0,4-0.875,7.333,2.875"/>
<path fill="none" stroke="#999" stroke-miterlimit="10" d="M208.083,180.75c0,0-2.25,2.25,0,4.167c0,0-1.833,1.518-0.5,4.217
	c0,0,0.083,1.866-1.167,2.449c0,0-1.5,1.333,0.833,2.917c0,0,0.917,0.917-0.75,2.417c0,0-0.891,1.417,0.513,2.5
	c0,0,1.404,1.75-1.013,4.417c0,0-0.225,1.624,1.013,2.77c0,0,0.821,1.73-1.013,3.313c0,0-0.308,2.667,1.013,4.25
	c0,0,0.788,2.167-1.071,3.917c0,0-0.833,1.417,1.071,2.75c0,0,1.977,1.172-0.091,4.167c0,0-1.828,2.083,0,3.75
	c0,0,1.578,3.167-0.922,6.333c0,0-0.49,2.333,0.922,4.583c0,0,0.745,0.417-0.922,3.75c0,0-0.406,2,0.922,3.417
	c0,0,0.849,2.333-1.161,4c0,0-0.917,1.667,1.161,3.042c0,0,1.804,0.625-0.101,3.125c0,0-1.429,0.5,0,2.583
	c0,0,1.679,1.333-0.488,5.333c0,0-0.358,1,0.488,2.25c0,0,1.571,0.25,0,2.333c0,0-1.571,1.417,0.345,4.333
	c0,0-1.363,8.167-9.39,6.333c0,0-1.36,1.167,0.64,1.833c0,0,5.667,1.083,7.5-3.583c0,0,2.083,2.583,0.5,5.5
	c0,0-0.833,1.5,0.417,2.25c0,0,1.167,2.433,0,4.717"/>
<path fill="none" stroke="#999" stroke-miterlimit="10" d="M214.188,178.5c0,0-0.938,2.625,0,4.563c0,0,0.854,1.563-0.417,3.625
	c0,0,1.271,2.563,0,4.625c0,0-1.147,11.247,0.698,12.811c0,0,0.635,4.543,0,4.96c0,0,0.365,3.917,1.032,5.917
	c0,0-1.583,2.917,0,5.833c0,0,1.083,1.583,0,6c0,0,3.796,4.167,0.481,6.917c0,0-0.648,3.083,0.519,4.833
	c0,0,0.008,2.083-1.121,3.417c0,0,2.712,5.333,0,6c0,0-3.212-3.583-7.796-1c0,0-2.85,1.676,2.083,1c0,0,3.583-1.083,5.333,1.75"/>
<path fill="none" stroke="#999" stroke-miterlimit="10" d="M216,258.667c0,0-1.667,2.583-0.5,4.917c0,0,1.669,2.333,0.043,5.75
	c0,0-1.284,2.75,0.712,4c0,0,1.169,2.75-0.585,5c0,0-0.731,3.083,0.966,4.083c0,0,2.114,9.6-7.553,8.467"/>
<path fill="none" stroke="#999" stroke-miterlimit="10" d="M223.833,268.417c0,0-0.583,5.143,0.583,6.405
	c0,0,1.08,6.595-7.585,5.845c0,0-1.749,1.75,2.168,1.583c0,0,3.333,0,4.833-2.583"/>
<path fill="none" stroke="#999" stroke-miterlimit="10" d="M223.917,288.25c0,0-1.831,3,0.543,5.25c0,0,1.326,2.167-0.608,5.75
	c0,0-0.185,2.917,1.399,4.333c0,0,0.253,2.917-0.79,3.167"/>
<path fill="none" stroke="#999" stroke-miterlimit="10" d="M229.688,274.313c0,0-0.188,2.5,1.125,3.313
	c0,0,0.794,1.438-1.134,3.938c0,0-0.463,2.188,0.648,3c0,0,1.151,4.688-0.744,9.875c0,0-0.645,1.063,0.98,4.063
	c0,0,1.5,1.75-0.625,5.188c0,0-1.035,2.357,1.139,4.303c0,0-2.014,3.197-0.389,4.634c0,0,0.903,0.438,0.389,3.563
	c0,0-1.139,2.563-0.264,3.875"/>
<path fill="none" stroke="#999" stroke-miterlimit="10" d="M217.339,234.71c0,0-0.673,32.956,25.494,52.79
	c0,0,1.25,1.5,3.667,0.75c0,0,7.917-1.083,13.25-11.667c0,0,1-2.375,1.667-2.271c0,0,0.75,1.271-0.583,3.021
	c0,0,3.667,6.998-3.25,11.916c-6.917,4.918-12.25,6.084-12.333,0.501c0,0,0.167-2.835,1.5-0.501c0,0,1.75,2.834-0.333,6.001
	c0,0-0.917,1.917-0.25,3.333c0,0-2.917,3.5-1.417,6.833c0,0-3.833,3.75-2.583,7.917c0,0-0.917,4.667-1.167,6"/>
<path fill="none" stroke="#999" stroke-miterlimit="10" d="M222.083,180.75c0,0-1.333,1.583,0,3.667c0,0-1.333,3.583,0,5.583
	c0,0,0,3.333-1.083,5c0,0,2.25,5.167,1.083,6.5c0,0-1.831,3.833-0.374,6.333c0,0,2.209,4.167,0,10.833c0,0-0.16,4.167,0.982,6.833
	c0,0,0.525,2.917,0,7.875c0,0,1.575,1.042,0.233,4.875c0,0-0.422,3.333,1.535,5.333c0,0,0.626,1.75,0,3.917
	c0,0,1.54,0.75,1.874,3.167c0,0,0.333,5.25,2.083,6.833"/>
<path fill="none" stroke="#999" stroke-miterlimit="10" d="M230.083,184.167c0,0-1.75,2.333-0.417,4.5
	c0,0,2.583,3.68,0.417,6.798c0,0-1.302,1.702-0.026,3.952c0,0,1.891,5.167,0,13.5c0,0,1.859-0.333,1.276,6.208
	c0,0-0.083,5.625,0.667,10.708c0,0,2.75,5,1.5,7.583c0,0-1.015,5.75,0.326,7.667c0,0,1.924,4,1.424,8.583
	c0,0-0.751,2.333,0.083,5.333c0,0,2.917,3.75,1.834,8.75c0,0,3.667,10.25,10.083,15.917"/>
<path fill="none" stroke="#999" stroke-miterlimit="10" d="M236.25,183.25c0,0-1,3.5,0.75,4.75c0,0-2.125,4.68,0,7.465
	c0,0,1.125,5.41,0,7.91c0,0,1.5,2.167,0.5,5.708c0,0,2.688,6.667,0.344,10.042c0,0,2.072,1.5,0.364,6.625c0,0,3.059-0.5,1.363,12.5
	c0,0,2.429,0.25,1.304,5c0,0,2.095,4.375,0.297,2.75"/>
<path fill="none" stroke="#999" stroke-miterlimit="10" d="M243.667,181.625c0,0,1.083,0.875,0,3.708c0,0-2.62,0.333,0.481,8
	c0,0-1.435,3.25,0,6.083c0,0,2.602,6.75,1.602,12.25c0,0-1.875,5.583,0.75,14.708c0,0,1.625,1.958,0.75,11.042
	c0,0,1.5,7.021,2.563,14.646c0,0,1.063,6.625,1.063,11c0,0,0.813,5.5,2.5,11.25c0,0,1.875,5.125,0.875,7.25"/>
<line fill="none" stroke="#999" stroke-miterlimit="10" x1="254.544" y1="182.75" x2="255.5" y2="217.625"/>
<line fill="none" stroke="#999" stroke-miterlimit="10" x1="260.125" y1="184.167" x2="257.5" y2="274.313"/>
<path fill="none" stroke="#999" stroke-miterlimit="10" d="M263.5,183.833c0,0-0.625,1.604,0.313,3.042
	c0,0,0.842,1.125-0.517,3.875c0,0,1.508,1.375,0.387,5.875c0,0-1.29,3.125,0.014,5.5c0,0-1.11,3-0.091,11.438
	c0,0,0.082,2.75,0.832,5.063c0,0-0.949,15-0.662,17.313c0,0,0.037,4.125,0.662,6.875c0,0-1.938,3.938-0.375,7.813
	c0,0-1.522,5.375-0.949,9.938c0,0,1.386,6.958-1.864,13"/>
<path fill="none" stroke="#999" stroke-miterlimit="10" d="M270.667,346.417c0,0,2.167,0.417,3.167-1.917
	c0,0-3.083-6.083-4.167-12.667c0,0-4.75-13.917-3.917-19.667c0,0-2.086-18.887-3.083-23.917c0,0,1.42-3.665,0-3.583
	c0,0-5.75,3.083-5.333,6.75c0,0,1.667,12.583,3,19.917c0,0,1.417,4.833,2.667,8c0,0,5.583,14,4,20.667c0,0-6.917,8.167-10.667,3.833
	c0,0-1.417-2.083,0.667-16.167l1.917-8.333"/>
<polyline fill="none" stroke="#999" stroke-miterlimit="10" points="265.271,194.969 312.5,198.583 312.5,200 264.917,196.583 
	267.083,199.25 307.083,202.167 305.333,204.5 267.833,201.917 268.333,203.917 304.75,206.875 304.781,288.813 307.844,288.875 
	307.906,290 263.406,290.094 264.438,291.313 306.313,291.375 303.625,292.5 264,292.5 263.975,293.751 306.25,293.813 
	303.906,294.969 304.375,334.813 270.625,335.25 271.496,338.835 305.088,338.379 305.25,343.5 273.833,344.167 "/>
<polyline fill="none" stroke="#999" stroke-miterlimit="10" points="263.375,200.75 266.88,199.479 267.701,201.865 
	263.665,203.44 264.279,205.638 268.229,203.91 268.5,289.583 "/>
<polygon fill="none" stroke="#999" stroke-miterlimit="10" points="274.5,209.083 297.5,210.875 297.5,285.5 274.5,285.5 "/>
<polygon fill="none" stroke="#999" stroke-miterlimit="10" points="276.5,211.869 295.5,213.125 295.5,282 277.314,282.25 "/>
<line fill="none" stroke="#999" stroke-miterlimit="10" x1="268.5" y1="296" x2="268.5" y2="327"/>
<polygon fill="none" stroke="#999" stroke-miterlimit="10" points="275.5,301.5 297.5,301.5 297.5,331 275.5,331.667 "/>
<rect x="278.5" y="304.5" fill="none" stroke="#999" stroke-miterlimit="10" width="17" height="25"/>
<line fill="none" stroke="#999" stroke-miterlimit="10" x1="286.487" y1="196.592" x2="357.75" y2="184.167"/>
<path fill="none" stroke="#999" stroke-miterlimit="10" d="M312.5,202.5c0,0,2,46.833-4.5,60.833c0,0,3.333,7.377,1,13.688"/>
<path fill="none" stroke="#999" stroke-miterlimit="10" d="M328.167,196c0,0-9.263,76.482-15.376,84.667"/>
<path fill="none" stroke="#999" stroke-miterlimit="10" d="M342.5,192.305c0,0-0.333,91.195-23.5,94.029
	c0,0-7.031-3.833-11.5-10.994c0,0,9.302,9.89,11.469,11.224c0,0-1.802,5.557-4.469,4.414c0,0-8.333-6.954-8.5-8.715
	c0,0,8,8.94,10,10.256c0,0,16.667,44.816,9.167,49.816c0,0-8.167,3.333-9.5-1c0,0,4,4.333-7.667,1.167"/>
<polyline fill="none" stroke="#999" stroke-miterlimit="10" points="351.771,172.042 374.302,167.688 413.484,172.01 
	410.659,173.505 374.996,169.669 354.165,173.501 355.916,175.584 376.833,171.625 407.916,175.583 405.917,177.833 377.5,174.25 
	356.917,178.25 357.75,180.083 378.167,176.167 405.417,179.542 404.833,289.5 411.938,289.438 413.516,291.875 378.583,292.375 
	351.5,291.875 351.5,288.667 358.625,288.688 358.896,180.333 "/>
<polyline fill="none" stroke="#999" stroke-miterlimit="10" points="351,292.198 353.542,295.5 410.672,295.234 413.516,292.563 
	407.063,298.625 378.813,299.188 355.625,299 353.563,296 "/>
<polyline fill="none" stroke="#999" stroke-miterlimit="10" points="358.832,299.026 358.5,346 378.875,348.625 409.411,346.656 
	405.497,343.254 405.667,299.188 379,299.583 378.875,348.625 "/>
<polyline fill="none" stroke="#999" stroke-miterlimit="10" points="410,346.625 414.5,348 377.688,351.625 356.5,348.625 
	356.5,360 377.813,363.125 377.688,351.625 377.563,363.125 414.5,359.5 414.5,348 "/>
<path fill="none" stroke="#999" stroke-miterlimit="10" d="M339.063,279c2.451,0,4.438,2.891,4.438,6.458
	c0,3.567-1.987,6.458-4.438,6.458s-4.438-2.891-4.438-6.458C334.625,281.891,336.612,279,339.063,279"/>
<path fill="none" stroke="#999" stroke-miterlimit="10" d="M338.833,278.848c0,0,6.286-2.225,7.495,3.484"/>
<path fill="none" stroke="#999" stroke-miterlimit="10" d="M346.25,289.417c0,0-0.542,2.74-6.167,2.781"/>
<path fill="none" stroke="#999" stroke-width="1.0355" stroke-miterlimit="10" d="M350.458,291.417c0,0-4.042,1.833-4.375-4.167
	c0,0-1.042-8.083,3.667-8.25c0,0,4.667-1.583,4.333,9.674c0,0-0.375-8.97-2.792-9.718c0,0,4.988-1.128,6.212,3.907
	c0.349,1.437-0.003,3.762-0.17,5.054"/>
<path fill="none" stroke="#999" stroke-miterlimit="10" d="M340.083,286.625c-0.729,1.063-3.104-0.326-1.354-2.479"/>
<path fill="none" stroke="#999" stroke-width="1.0711" stroke-miterlimit="10" d="M420.327,278.957
	c2.415,0.418,3.806,4.026,3.108,8.058c-0.698,4.032-3.222,6.961-5.637,6.543s-3.806-4.026-3.108-8.058
	C415.388,281.468,417.912,278.539,420.327,278.957"/>
<path fill="none" stroke="#999" stroke-miterlimit="10" d="M419.083,287.625c-0.729,1.063-3.104-0.326-1.354-2.479"/>
<path fill="none" stroke="#999" stroke-miterlimit="10" d="M350.854,286.99c-0.694,0.667-2.938-0.663-1.229-2.386"/>
<path fill="none" stroke="#999" stroke-miterlimit="10" d="M338.063,307c2.451,0,4.438,2.891,4.438,6.458
	c0,3.567-1.987,6.458-4.438,6.458s-4.438-2.891-4.438-6.458C333.625,309.891,335.612,307,338.063,307"/>
<path fill="none" stroke="#999" stroke-miterlimit="10" d="M337.833,306.848c0,0,6.286-2.225,7.495,3.484"/>
<path fill="none" stroke="#999" stroke-miterlimit="10" d="M345.25,317.417c0,0-0.542,2.74-6.167,2.781"/>
<path fill="none" stroke="#999" stroke-width="1.0355" stroke-miterlimit="10" d="M353.042,315.165
	c-0.875,7.543-7.625,6.085-7.958,0.085c0,0-1.042-8.083,3.667-8.25c0,0,4.667-0.508,4.193,7.777c0,0,0.474-6.777-3.893-7.777
	c0,0,5.784-0.833,6.492,3.083"/>
<path fill="none" stroke="#999" stroke-miterlimit="10" d="M339.083,314.625c-0.729,1.063-3.104-0.326-1.354-2.479"/>
<path fill="none" stroke="#999" stroke-miterlimit="10" d="M349.854,314.99c-0.694,0.667-2.938-0.663-1.229-2.386"/>
<path fill="none" stroke="#999" stroke-width="1.0355" stroke-miterlimit="10" d="M358.333,309.083c0,0-3.411-0.452-4.5,4.375
	c0,0-1.542,7.292,3.375,8.792l1.125,0.292"/>
<path fill="none" stroke="#999" stroke-width="1.0355" stroke-miterlimit="10" d="M335.875,290.807c0,0-6.401,0.568-6.375,10.693
	l0.5,20.167l1.833,0.042l26.828,1.479l-25.838-1.425c0,0-3.74-27.096,5.239-27.961l13.756-0.135"/>
<polyline fill="none" stroke="#999" stroke-width="1.0355" stroke-miterlimit="10" points="410.75,176.75 562.25,196.917 
	506,202.125 441.187,194.821 494.322,187.75 427.875,196.592 506,205 574.602,198.596 572.941,200.966 503.417,207.75 
	503.379,217.583 568.375,214 "/>
<polyline fill="none" stroke="#999" stroke-width="1.0355" stroke-miterlimit="10" points="407.25,199.5 428.377,196.646 
	416.212,198.322 503.417,207.75 "/>
<polyline fill="none" stroke="#999" stroke-miterlimit="10" points="406.75,213.5 434.5,216 434.5,284 "/>
<polyline fill="none" stroke="#999" stroke-miterlimit="10" points="407,216.5 409.75,216.917 409.411,239.5 406,239.5 "/>
<polyline fill="none" stroke="#999" stroke-miterlimit="10" points="406,241.5 410,241.5 409.75,263.5 406,263.5 "/>
<polyline fill="none" stroke="#999" stroke-miterlimit="10" points="406,265.5 409.5,265.5 409.5,278 "/>
<polygon fill="none" stroke="#999" stroke-miterlimit="10" points="414.5,217.5 421.5,218 421.5,240.5 414.333,240.5 "/>
<polygon fill="none" stroke="#999" stroke-miterlimit="10" points="423.207,218.393 428.5,219 428.5,240.5 423.064,240.547 "/>
<polygon fill="none" stroke="#999" stroke-miterlimit="10" points="414.063,242.5 421.5,242.5 421.5,263.5 413.938,263.5 "/>
<polygon fill="none" stroke="#999" stroke-miterlimit="10" points="423,242.5 428.5,242.5 428.5,263.5 423.064,263.5 "/>
<polyline fill="none" stroke="#999" stroke-miterlimit="10" points="413.938,278 414,265.5 421.75,265.5 421.742,278.375 "/>
<polyline fill="none" stroke="#999" stroke-miterlimit="10" points="428.5,281 428.5,265.5 423.5,265.5 423.5,278 "/>
<polyline fill="none" stroke="#999" stroke-miterlimit="10" points="486.167,303.167 480.667,218.393 438.667,215.5 
	441.167,282.332 "/>
<line fill="none" stroke="#999" stroke-miterlimit="10" x1="443.5" y1="301" x2="443.5" y2="316"/>
<polyline fill="none" stroke="#999" stroke-miterlimit="10" points="446.5,224.5 475.167,225.667 480,318.807 451.438,320.299 
	446.5,224.5 "/>
<polyline fill="none" stroke="#999" stroke-miterlimit="10" points="482,223.5 485.5,223.5 485.5,243.5 483,243.5 "/>
<polyline fill="none" stroke="#999" stroke-miterlimit="10" points="487.25,223.828 493.5,223.938 493.5,243.5 487.188,243.5 
	487.156,224.031 "/>
<polyline fill="none" stroke="#999" stroke-miterlimit="10" points="498.25,224.828 504.5,224.938 504.5,243.5 498.188,243.5 
	498.156,225.031 "/>
<polyline fill="none" stroke="#999" stroke-miterlimit="10" points="506.25,224.828 512.5,224.938 512.5,243.5 506.188,243.5 
	506.156,225.031 "/>
<polyline fill="none" stroke="#999" stroke-miterlimit="10" points="498.25,245.828 504.5,245.938 504.5,264.5 498.188,264.5 
	498.156,246.031 "/>
<polyline fill="none" stroke="#999" stroke-miterlimit="10" points="506.25,245.828 512.5,245.938 512.5,264.5 506.188,264.5 
	506.156,246.031 "/>
<polyline fill="none" stroke="#999" stroke-miterlimit="10" points="498.25,266.828 504.5,266.938 504.5,285.5 498.188,285.5 
	498.156,267.031 "/>
<polyline fill="none" stroke="#999" stroke-miterlimit="10" points="506.25,266.828 512.5,266.938 512.5,285.5 506.188,285.5 
	506.156,267.031 "/>
<polyline fill="none" stroke="#999" stroke-miterlimit="10" points="483,245.5 485.5,245.5 485.5,263.5 484,263.5 "/>
<polygon fill="none" stroke="#999" stroke-miterlimit="10" points="487.375,245.5 493.5,245.5 493.5,263.5 487.156,263.5 "/>
<polyline fill="none" stroke="#999" stroke-miterlimit="10" points="485,265.5 486,265.5 486.167,285.917 "/>
<polygon fill="none" stroke="#999" stroke-miterlimit="10" points="487.75,265.5 493.708,265.5 493.5,284.917 487.792,285 "/>
<polygon fill="none" stroke="#999" stroke-miterlimit="10" points="487.584,286.825 493.498,286.672 493.506,302.041 
	487.375,302.25 "/>
<polyline fill="none" stroke="#999" stroke-miterlimit="10" points="498.5,294 498.5,287.5 504.708,287.5 504.5,300.938 "/>
<polyline fill="none" stroke="#999" stroke-miterlimit="10" points="506.5,302 506.5,287.5 511.5,287.5 511.5,301 "/>
<line fill="none" stroke="#999" stroke-miterlimit="10" x1="255.5" y1="147.167" x2="578.968" y2="192.305"/>
<polyline fill="none" stroke="#999" stroke-miterlimit="10" points="40.5,178.753 64.5,180.75 64.5,214.438 40.5,213.313 
	40.5,179 "/>
<polygon fill="none" stroke="#999" stroke-miterlimit="10" points="156.5,188.875 174.5,190.38 174.5,220 156.5,219.125 "/>
<polyline fill="none" stroke="#999" stroke-miterlimit="10" points="374.25,184.167 364.5,186.042 364.5,284 374.5,283.667 
	374.5,182 361.5,184.333 362.25,284.5 364,284.5 "/>
<polyline fill="none" stroke="#999" stroke-miterlimit="10" points="378.5,178 378.5,289.295 403.938,289.688 359.417,289 "/>
<polyline fill="none" stroke="#999" stroke-miterlimit="10" points="384.833,186.208 398.167,187.854 399.167,283.5 400.5,283.5 
	400.5,186 382.5,183.25 383.09,283.982 399.167,283.5 "/>
<polyline fill="none" stroke="#999" stroke-miterlimit="10" points="364.5,306 364.5,338 374.5,339.333 374.5,305 361.5,303.833 
	362.167,339.333 374.5,341.167 "/>
<polyline fill="none" stroke="#999" stroke-miterlimit="10" points="399.75,306.422 399.917,337.833 383.5,339 383.5,306 
	401.5,305.167 401.5,339.417 383.5,340.667 "/>
<polyline fill="none" stroke="#999" stroke-miterlimit="10" points="445.5,332 445.5,327.75 486.5,327 486.5,332.5 448,332.5 "/>
<polyline fill="none" stroke="#999" stroke-miterlimit="10" points="519,224.5 514.5,224.5 514.5,243.5 518.5,243.5 
	518.563,245.5 514.625,245.5 514.313,264.5 519.5,264.5 519.5,266.5 514.531,266.828 514.375,285.5 518.5,285.5 518.5,287.5 
	514.25,287.5 514.109,301.023 "/>
<path fill="none" stroke="#999" stroke-miterlimit="10" d="M518.417,219.75c0,0-0.833,20.667,1.5,27.333
	c0,0-2.25,8.833,0.5,17.833c0,0-3.561,14.083-1.072,21"/>
<path fill="none" stroke="#999" stroke-miterlimit="10" d="M527,222.25c0,0,1.375,23.167-1.25,30.583c0,0,2.375,5.417,0,9.042
	c0,0,2,4.375,0,7.125c0,0,3.61,9.125,0.805,11.75"/>
<path fill="none" stroke="#999" stroke-miterlimit="10" d="M534,218.393c0,0,1,53.107,14.667,65.607c0,0,10,1.333,11.167-23
	l-4.167,19.75c0,0,3-0.057,1.5,3.263c0,0,3.875,2.112,4.667,14.904c0,0-0.375-12.208-4.667-14.904c0,0-10.336,9.011-9.002,0.636
	c0,0-1.331,2.184,0.752,3.767c0,0-3.667,8.5-1.5,11.25"/>
<path fill="none" stroke="#999" stroke-miterlimit="10" d="M541.167,218.393c0,0-2.333,53.44,9.667,62.357
	c0,0,1.298,1.004,2.107,1.669c0,0-9.524-31.002-7.107-53.419c0,0,0.298,40.5,7.107,52.313c0,0-1.941-20.688-1.003-24.25"/>
<polyline fill="none" stroke="#999" stroke-miterlimit="10" points="562.5,222 562.5,281 574.822,280.75 574.94,222.419 
	576.5,222.667 576.5,284.333 560.668,284.489 560.667,288.5 575.5,288.5 575.5,298 "/>
<path fill="none" stroke="#999" stroke-miterlimit="10" d="M565.5,216v6l12,0.25c0,0-1.583,42.833,3.083,53.667
	c0,0-2.917,2.333-0.917,5.583c0,0-5.167,11.083-3.167,17.083L591.167,298c0,0,0.417-7.417-4.083-11.5c0,0-5.405-1.338-6.75-4.5
	c0,0,3.167,3.917,6.833,3.917c0,0,2.25-1.667,1.75-3c0,0-7.083-3.417-7.583-6.167c0,0-1.583-27.25,0.25-35.167"/>
<path fill="none" stroke="#999" stroke-miterlimit="10" d="M594.167,277.917c0,0-3.884,6.419-6.218,4.502
	c0,0-0.282-2.502,1.968-5.252c0,0-1.763,3.244-3.596,4.327c0,0-4.654,1.089-0.404-19.327"/>
<polyline fill="none" stroke="#999" stroke-miterlimit="10" points="577.5,222.25 596,221.375 595.125,287.5 593,287.5 
	589.68,290.156 634,290.25 630.938,294.75 591.5,294.219 591.5,298 "/>
<polyline fill="none" stroke="#999" stroke-miterlimit="10" points="600.5,283 600.5,220 598.5,217.583 598.5,284 
	626.875,283.375 627,222.25 628.563,223.125 629.359,286.253 631,287.5 632.313,288.375 594.167,288.688 "/>
<path fill="none" stroke="#999" stroke-miterlimit="10" d="M644.5,124v54l-55.291,6c0,0-2.709-3.125-4.709,0v4
	c0,0-14.5,12.375-15.375,22.375c0,0-1.875,2.375,1.5,3.25c0,0,18.75,1.5,32.75,0c0,0,8.125-4.125-31-1.75l-1.25-1.75
	c0,0,30.75-3.375,33.625,0.875c0,0-3.75-15.625-16.25-24.125l1.125-1.25l55.75-6"/>
<path fill="none" stroke="#999" stroke-miterlimit="10" d="M602.875,204.75c0,0,6.625-11.458,9-12.792
	c0,0-1.75-4.833,3.125-4.958c0,0,3.625-0.167,3.5,4.417c0,0,14.25,16.167,12.875,22.875c0,0-0.5,3.333-7.438,2.708
	c0,0-26.188,2-23.688-1c0,0,5.5-4.125,29-1"/>
<path fill="none" stroke="#999" stroke-miterlimit="10" d="M629.5,205.125c0,0,8.375-20.75,15.875-24.375
	c0,0-0.375-4.5,1.25-5.375c0,0,4.5-3.375,5.375,4.75c0,0,20.75,23.125,16,28c0,0-20.375,6.167-37.739,0.48
	c0,0-5.768-4.605,21.739-4.605c8,0,14.878,2.125,15.563,3.5"/>
<path fill="none" stroke="#999" stroke-miterlimit="10" d="M691.25,210.167c0,0-17.098-6.017-32.265,0.417
	c0,0-2.485,2.791,1.515,2.666c0,0,24.625,1.464,31.875-2.018c0,0,1.75-0.722,0.625-3.165c0,0-7.125-15.942-16.5-22.817
	c0,0,0.013-3.625-1.181-4.375c0,0-2.319-1.375-3.444,1.375c0,0-0.625,2.375-0.375,3.375c0,0-4.955,5.374-7.648,9.666"/>
<path fill="none" stroke="#999" stroke-miterlimit="10" d="M715.25,212.417c0,0-22.583-2.75-32,1.875
	c0,0-0.583,1.375,1.333,1.708c0,0,22.083,2.022,32.333-2.197c0,0,1.583-1.886-0.333-4.469c0,0-8.667-16.75-15.25-19.333
	c0,0,0.25-4.417-1.417-5c0,0-2.333-1.5-3.583,1.333c0,0-0.417,2.583-0.333,3.667c0,0-4.409,4.923-7.488,9.643"/>
<path fill="none" stroke="#999" stroke-miterlimit="10" d="M640.908,184.603c-0.25,0-15.159-2.866-15.159-2.866l-7.332,0.789
	l20.417,3.634l-20.417,2.006l0.583,2.417l19.235-2.372"/>
<polyline fill="none" stroke="#999" stroke-miterlimit="10" points="655.833,183.333 671.875,182.25 671.459,184.603 
	656.895,185.918 658.976,188.546 667.52,190.266 666.417,192.5 661.142,191.417 "/>
<polyline fill="none" stroke="#999" stroke-miterlimit="10" points="679.722,188.193 695.5,187.375 695.5,189 681.584,190 "/>
<path fill="none" stroke="#999" stroke-miterlimit="10" d="M655.5,217.653c0,0-15.083-4.097-26.298-0.208
	c0,0-2.785,0.948-0.639,2.305c0,0,6.563,2,25.938,0c0,0,5.417-1.357-0.5-8.736"/>
<line fill="none" stroke="#999" stroke-miterlimit="10" x1="629.662" y1="226.5" x2="644.5" y2="226.667"/>
<line fill="none" stroke="#999" stroke-miterlimit="10" x1="630.5" y1="244.5" x2="643.5" y2="244.667"/>
<line fill="none" stroke="#999" stroke-miterlimit="10" x1="630" y1="264.5" x2="642" y2="264.5"/>
<line fill="none" stroke="#999" stroke-miterlimit="10" x1="631" y1="284.5" x2="642" y2="284.5"/>
<line fill="none" stroke="#999" stroke-miterlimit="10" x1="635.5" y1="222" x2="635.5" y2="295"/>
<line fill="none" stroke="#999" stroke-miterlimit="10" x1="637" y1="222.25" x2="637.081" y2="295"/>
<polyline fill="none" stroke="#999" stroke-miterlimit="10" points="642.875,295 645.767,220.448 692,218.393 690.5,295 "/>
<polyline fill="none" stroke="#999" stroke-miterlimit="10" points="649.103,295 652.125,227.625 683.167,226.5 681.5,295 "/>
<line fill="none" stroke="#999" stroke-miterlimit="10" x1="700.5" y1="218" x2="700.5" y2="295"/>
<line fill="none" stroke="#999" stroke-miterlimit="10" x1="704.667" y1="217.653" x2="757.833" y2="214.292"/>
<line fill="none" stroke="#999" stroke-miterlimit="10" x1="703" y1="219.333" x2="760.333" y2="216.484"/>
<line fill="none" stroke="#999" stroke-miterlimit="10" x1="719" y1="211.014" x2="759.333" y2="208.667"/>
<line fill="none" stroke="#999" stroke-miterlimit="10" x1="704.5" y1="222" x2="704.5" y2="295"/>
<line fill="none" stroke="#999" stroke-miterlimit="10" x1="706.416" y1="222" x2="726.333" y2="220.639"/>
<line fill="none" stroke="#999" stroke-miterlimit="10" x1="708" y1="241" x2="726.333" y2="240.833"/>
<line fill="none" stroke="#999" stroke-miterlimit="10" x1="708" y1="262.5" x2="726.333" y2="262.333"/>
<line fill="none" stroke="#999" stroke-miterlimit="10" x1="708" y1="284.5" x2="726.333" y2="283.833"/>
<line fill="none" stroke="#999" stroke-miterlimit="10" x1="708" y1="221.892" x2="708.667" y2="295"/>
<line fill="none" stroke="#999" stroke-miterlimit="10" x1="715.561" y1="221.375" x2="716.374" y2="295.833"/>
<line fill="none" stroke="#999" stroke-miterlimit="10" x1="717.5" y1="221" x2="717.5" y2="296"/>
<line fill="none" stroke="#999" stroke-miterlimit="10" x1="726.333" y1="220.639" x2="727.333" y2="296"/>
<line fill="none" stroke="#999" stroke-miterlimit="10" x1="730.5" y1="220.639" x2="754" y2="219.333"/>
<line fill="none" stroke="#999" stroke-miterlimit="10" x1="731.25" y1="240.833" x2="754" y2="240"/>
<line fill="none" stroke="#999" stroke-miterlimit="10" x1="732.667" y1="262.5" x2="753.167" y2="262.333"/>
<line fill="none" stroke="#999" stroke-miterlimit="10" x1="731.667" y1="284.5" x2="753.167" y2="285.333"/>
<line fill="none" stroke="#999" stroke-miterlimit="10" x1="732.667" y1="219.986" x2="733.333" y2="296"/>
<line fill="none" stroke="#999" stroke-miterlimit="10" x1="744" y1="219.333" x2="744.333" y2="297"/>
<line fill="none" stroke="#999" stroke-miterlimit="10" x1="742.25" y1="219.986" x2="742.917" y2="297"/>
<line fill="none" stroke="#999" stroke-miterlimit="10" x1="753.5" y1="219" x2="753.5" y2="297"/>
<line fill="none" stroke="#999" stroke-miterlimit="10" x1="757.167" y1="219" x2="757.833" y2="297"/>
<path fill="none" stroke="#999" stroke-miterlimit="10" d="M759.333,206.5c0,0,1.167,16.333,2.5,17.833c0,0-1.792,10.75,0,16.083
	c0,0-1.917,14.208,0,18.833c0,0-3.167,18.125-1.25,27.375c0,0,0.458,5.25,1.25,5.875"/>
<path fill="none" stroke="#999" stroke-miterlimit="10" d="M769.25,207.5c0,0,0.875,9.5-0.5,14.5c0,0-1.101,5.375,0.387,7.625
	c0,0,1.079,5.875-0.779,8.75c0,0,2.899,15.083,0.583,20.229c0,0,1.15,22.313-0.583,25.229"/>
<path fill="none" stroke="#999" stroke-miterlimit="10" d="M774.625,216.484c0,0-1.25,2.766,0,4.891c0,0,3.083,1.5,0.792,16.25
	c0,0-0.833,9.375-0.25,13.25c0,0,1.917,4.75,0,8.75c0,0-0.278,8.875-1.097,11.125c0,0-0.361,11.125,1.097,13.75
	c0,0,1.377,8.875-0.02,9.875"/>
<path fill="none" stroke="#999" stroke-miterlimit="10" d="M780.25,203.25c0,0,0.75,4.43,0,6.59c0,0,1.083,4.378,0.167,6.644
	c0,0,2.208,8.766,0.958,13.641c0,0,1.883,10.875-0.371,14.375c0,0-1.017,10.625,0.177,17.375c0,0,1.806,6.875,0,9.75
	c0,0,1.806,9.875,0,11.5"/>
<line fill="none" stroke="#999" stroke-miterlimit="10" x1="716.374" y1="199" x2="963" y2="179"/>
<line fill="none" stroke="#999" stroke-miterlimit="10" x1="717.5" y1="202.326" x2="949.25" y2="182.25"/>
<line fill="none" stroke="#999" stroke-miterlimit="10" x1="726.333" y1="204.25" x2="810" y2="197.938"/>
<line fill="none" stroke="#999" stroke-miterlimit="10" x1="783.231" y1="203.326" x2="784.351" y2="284.125"/>
<polyline fill="none" stroke="#999" stroke-miterlimit="10" points="801.353,204.665 788.057,205.332 789.5,281.5 802,281.5 
	801.333,202.326 786.333,203.25 787.75,282.083 "/>
<line fill="none" stroke="#999" stroke-miterlimit="10" x1="805.833" y1="199" x2="806.333" y2="284.917"/>
<line fill="none" stroke="#999" stroke-miterlimit="10" x1="814" y1="202.375" x2="814.167" y2="284.917"/>
<polyline fill="none" stroke="#999" stroke-miterlimit="10" points="815.458,285 781.244,285.75 779.281,287.833 
	818.432,287.333 817.75,289.5 779,289.5 782.112,293.5 815,293.5 817.667,290.583 "/>
<line fill="none" stroke="#999" stroke-miterlimit="10" x1="783.5" y1="298" x2="783.5" y2="294"/>
<line fill="none" stroke="#999" stroke-miterlimit="10" x1="806.5" y1="294" x2="806.5" y2="298"/>
<line fill="none" stroke="#999" stroke-miterlimit="10" x1="815" y1="293.5" x2="814.917" y2="327.417"/>
<path fill="none" stroke="#999" stroke-miterlimit="10" d="M815,283.125c0,0,1.333,5.042,16-9.292c0,0,6.333,7-8,14.167
	c0,0,4.5-1.833,8.75-5.917c0,0,1.75,44.667-1.417,50.5c0,0-5.273,6.25-6.636,2.417c0,0-2.53,2.917-4.78,0.167l-0.484-5.083l-2.099-2
	c0,0,7.5-20.917,8.25-39.5c0,0,1.583,18.667,2.083,29.25"/>
<path fill="none" stroke="#999" stroke-miterlimit="10" d="M832.5,196l-0.875,77.394c0,0-4.438,5.128-6.978,6.163
	c0,0,3.603-30.932-2.772-82.432"/>
<path fill="none" stroke="#999" stroke-miterlimit="10" d="M815,236.375c0,0,5.519,39.625,8.697,42.625
	c0,0-5.551-5.374-7.572-15.125"/>
<line fill="none" stroke="#999" stroke-miterlimit="10" x1="832.5" y1="196" x2="960" y2="184.603"/>
<line fill="none" stroke="#999" stroke-miterlimit="10" x1="833.375" y1="287.25" x2="897.75" y2="288"/>
<line fill="none" stroke="#999" stroke-miterlimit="10" x1="834.667" y1="291.167" x2="898" y2="292.5"/>
<line fill="none" stroke="#999" stroke-miterlimit="10" x1="833.375" y1="294" x2="896.667" y2="295.167"/>
<polyline fill="none" stroke="#999" stroke-miterlimit="10" points="834,298.5 852.5,298.5 852.5,324.5 833,324.5 "/>
<polyline fill="none" stroke="#999" stroke-miterlimit="10" points="834,301.5 848.5,301.5 848.5,321.5 837,321.5 "/>
<polyline fill="none" stroke="#999" stroke-miterlimit="10" points="860.375,298.625 892.5,299.125 892.5,326 860.254,324.54 
	860,300.125 "/>
<polyline fill="none" stroke="#999" stroke-miterlimit="10" points="864,302.5 887.5,302.5 887.5,322.25 864.5,321.5 864.5,303 
	"/>
<line fill="none" stroke="#999" stroke-miterlimit="10" x1="833" y1="330.333" x2="899" y2="334.167"/>
<line fill="none" stroke="#999" stroke-miterlimit="10" x1="830.167" y1="335" x2="967.449" y2="343.166"/>
<line fill="none" stroke="#999" stroke-miterlimit="10" x1="897.75" y1="199" x2="899" y2="339.095"/>
<line fill="none" stroke="#999" stroke-miterlimit="10" x1="898" y1="202.094" x2="965" y2="198.043"/>
<polyline fill="none" stroke="#999" stroke-miterlimit="10" points="965.75,202.052 902.5,206.5 902.5,339 "/>
<polyline fill="none" stroke="#999" stroke-miterlimit="10" points="965.75,204.25 905.5,208.667 905.5,339 "/>
<polyline fill="none" stroke="#999" stroke-miterlimit="10" points="909.375,211.236 949.313,207.611 950.906,339.056 
	909.5,336.347 909.375,211.5 "/>
<line fill="none" stroke="#999" stroke-miterlimit="10" x1="909.398" y1="234.167" x2="949.25" y2="233.667"/>
<line fill="none" stroke="#999" stroke-miterlimit="10" x1="909.375" y1="236.375" x2="949.25" y2="235.333"/>
<line fill="none" stroke="#999" stroke-miterlimit="10" x1="909.375" y1="260.333" x2="949.944" y2="259.665"/>
<line fill="none" stroke="#999" stroke-miterlimit="10" x1="909.426" y1="262" x2="949.962" y2="261.171"/>
<line fill="none" stroke="#999" stroke-miterlimit="10" x1="910.167" y1="285.667" x2="949.962" y2="285.833"/>
<line fill="none" stroke="#999" stroke-miterlimit="10" x1="909" y1="287.5" x2="949" y2="287.5"/>
<line fill="none" stroke="#999" stroke-miterlimit="10" x1="910.167" y1="311.5" x2="950.582" y2="312.313"/>
<line fill="none" stroke="#999" stroke-miterlimit="10" x1="910.167" y1="313.333" x2="950.582" y2="313.833"/>
<line fill="none" stroke="#999" stroke-miterlimit="10" x1="928" y1="208.667" x2="929.313" y2="337.643"/>
<line fill="none" stroke="#999" stroke-miterlimit="10" x1="930.374" y1="209.33" x2="931.5" y2="337.786"/>
<polyline fill="none" stroke="#999" stroke-miterlimit="10" points="966,207.5 962.5,207.5 962.5,339.5 967,339.5 "/>
<path fill="none" stroke="#999" stroke-miterlimit="10" d="M422.333,279c0,0,5.5,0,5.75,5c0,0,1.333,8.255-3.583,10.461
	c0,0-1.25,0.378-4.833,0"/>
<path fill="none" stroke="#999" stroke-miterlimit="10" d="M406,279.813c0,0,6-3.563,6,5.063c0,0-0.25,2.5-1.375,3.375"/>
<path fill="none" stroke="#999" stroke-miterlimit="10" d="M410.813,279.083c0,0,3.438-1.333,4.125,2.792"/>
<path fill="none" stroke="#999" stroke-miterlimit="10" d="M428.5,286.814l10.75,3.373c0,0,2.083,3.188-0.583,3.125
	l-10.167-2.938"/>
<path fill="none" stroke="#999" stroke-miterlimit="10" d="M435.875,288.25c0,0,1.688-8.063,5.625-3.25
	c0,0,2.938,4.01,1.188,10.693"/>
<path fill="none" stroke="#999" stroke-miterlimit="10" d="M440.688,283.468c0,0,5.188-1.589,7.375,3.347
	c0,0,1.5,7.623-0.938,9.311"/>
<path fill="none" stroke="#999" stroke-miterlimit="10" d="M447.5,297.083c0,0-20.083-6.917-23-0.958
	c0,0-3.167,3.292-3.083,10.375l-0.002,41.333c0,0-0.268,1.917,2.2,2.5c0,0,22.885,0.667,23.885,0.333c1-0.333,1.75,0,2.167-2.042
	c0,0,3-15.958-6.167-17.458c0,0-19.154-4.667-19.52-4.417c0,0-1.314-25.813,2.52-28.667c0,0,3.5-3.448,15.75,0.943
	c0,0,5.538,1.766,6.269,0.162c0,0,1.436-0.854,0-1.771"/>
<path fill="none" stroke="#999" stroke-miterlimit="10" d="M424.292,329.958c0,0,18.229,2.979,20.729,4.479
	c0,0,2.448,2.781,2.198,6.781c0,0,0.474,7.224-0.693,7.432c0,0-19.305,0.029-21.388-0.555c0,0-0.638-0.513-0.638-3.513V331"/>
<path fill="none" stroke="#999" stroke-width="1.0355" stroke-miterlimit="10" d="M406.75,310.667c0,0,3.625-0.397,4.063,3.218
	c0,0,1.854,10.115-4.063,10.865"/>
<path fill="none" stroke="#999" stroke-width="1.0355" stroke-miterlimit="10" d="M407.919,310.332c0,0,5.373,0.626,5.956,5.043"
	/>
<path fill="none" stroke="#999" stroke-width="1.0355" stroke-miterlimit="10" d="M406.75,325.813c0,0,4.375,1.521,6.25-2.896"/>
<path fill="none" stroke="#999" stroke-width="1.0355" stroke-miterlimit="10" d="M415.063,312.5c0,0-3.219,4.406-1.813,10.417
	c0,0,3.135,6.167,6.719,0c0,0,2.645-9.79-3.156-10.667c0,0-0.75,0-1.063,0.063"/>
<path fill="none" stroke="#999" stroke-width="1.0355" stroke-miterlimit="10" d="M416.042,312.042c0,0,3.333-2.417,5.542-0.125"
	/>
<path fill="none" stroke="#999" stroke-width="1.0355" stroke-miterlimit="10" d="M416.042,325.657c0,0,2.538,1.789,5.365,1.051"
	/>
<path fill="none" stroke="#999" stroke-width="1.0355" stroke-miterlimit="10" d="M424,312.583c0,0,4.917,3.667,0.583,13.482"/>
<path fill="none" stroke="#999" stroke-width="1.0355" stroke-miterlimit="10" d="M426.369,318.954l12.298,2.171
	c0,0,2.208,2.688-1.479,3c0,0-9.95-2-10.819-2.188"/>
<path fill="none" stroke="#999" stroke-width="1.0355" stroke-miterlimit="10" d="M433.813,319.324c0,0,2.938-7.137,6.625-3.324
	c0,0,4.438,6.5-1.688,12.438c0,0-5.313,2.438-5.904-4.875"/>
<path fill="none" stroke="#999" stroke-width="1.0355" stroke-miterlimit="10" d="M440.938,315.375c0,0,4.305-0.908,4.875,4.924
	c0.202,2.06,0.071,5.611-2.313,7.951c0,0-1.509,3.125-5.688,1.125"/>
<path fill="none" stroke="#999" stroke-width="1.0355" stroke-miterlimit="10" d="M61.833,381.5c0,0-16.833-0.167-16.5-18.333
	c0,0,4.495-11.833,8.248-11.083c0,0,1.752-17.583-4.414-20.583c0,0-18.5-0.5-33.833,6.833c0,0-4.167,1.667-2.167,3.667
	c0,0-0.586,74-0.543,77.667c0,0-4.79,5.167,33.71,5.333c0,0,17.667,0,19.5-2c0,0,2.167-24-1.333-25.5c0,0-2.667-1.167-9-1.333
	c0,0-11.333,2.5-19.333-16.667c0,0,2.667-10.333,0-14.833c0,0,5.667-26.042-3.5-27.854c0,0-10.167,1.021-13,1.688"/>
<path fill="none" stroke="#999" stroke-width="1.0355" stroke-miterlimit="10" d="M43.5,387.5c0,0,55.52-10.167,76.176-6.667
	c0,0,4.324-1.167,7.157,2.167c0,0,6.333,9.333,1,21.167c0,0-0.833-12.333-4.667-13.667c0,0,5.667,14.5,4,20
	c0,0-2.667,2.167-2.833,4.333c0,0,0.75,5-2.792,5c0,0,0.292-21.667-4.708-24c0,0,5.353,24,2.843,24c0,0-6.843,0.5-8.843,0
	c0,0-6.667-6.333-1-22c0,0-8,7.278-0.917,22.222L84.5,422.167c0,0-7.167-8.5-2.667-23.167c0,0-6.167,10.833-0.833,23.167L66.5,423"
	/>
<path fill="none" stroke="#999" stroke-miterlimit="10" d="M23,424.688L22.5,458c0,0,4.125,0.25,5.75,0
	c0,0,9.375-23.188,10.375-30.938c0,0-2.5,13.174-2.5,14.993c0,0,2.625,1.056,4.75,0L47.125,425"/>
<path fill="none" stroke="#999" stroke-miterlimit="10" d="M113.25,420.048c0,0,0.25,20.452,7.375,31.452h2.875V420
	c0,0,0.167,4.917,0.75,6c0,0,1.917,5.417,3.583,6.167l2.136-0.083l-0.345-31.771"/>
<path fill="none" stroke="#999" stroke-miterlimit="10" d="M141.5,396.833c0,0-0.167-2.75-7.5,9.417
	c0,0,8.833,1.292,9.333-17.708c0,0,0.5-10.188-15.333-17.354c0,0-3.333-0.344,1-13.344c0,0,1.667-13.839,4.333-13.672
	c0,0,1.5-1.836,12,1.831c0,0,40.5,3.89,62.167,0.444c0,0,27-4.28,30.333-5.28c0,0,8.167-5.667,9.167,1.666
	c0,0,3.5,20.333,3.333,21.333c0,0-6.858,4.667-10.762,10.667c0,0-9.404,14.833,1.762,23.167c0,0,2.333,1.333,1.333-1.333
	c0,0-3.498-5.094-5-5.833c0,0,8.167,4,6.333,18.333c0,0,1.333,16.167-2.333,18.5c0,0-3.667,3.667-19.667,8.5
	c0,0-50.667,8.799-72.5,5.233c0,0-16.167-2.399-16-10.233V408"/>
<path fill="none" stroke="#999" stroke-miterlimit="10" d="M147.167,349.167c0,0,43.5,82.167,90.333,79.167"/>
<path fill="none" stroke="#999" stroke-miterlimit="10" d="M143,349.167c0,0,7.5,63.333,52.667,89.333"/>
<path fill="none" stroke="#999" stroke-miterlimit="10" d="M137.917,439.583l-1.083,17.917H140l6.333-16.101L147.5,477.5h5.5
	c0,0,8.667-17.333,7.5-33.333"/>
<path fill="none" stroke="#999" stroke-miterlimit="10" d="M221.5,437.5c0,0-0.333,15.333,7.833,30.667l2.833,0.833l2.833-1.833
	c0,0-0.676-30.992,0-33.5c0,0-0.5,11.5,1.667,13l3.667-0.5l-1.167-15.333"/>
<path fill="none" stroke="#999" stroke-miterlimit="10" d="M183.833,346.833c0,0-1.167-4.833-7.25-6c0,0-3.417-1.01-3-1.755
	c0,0,2.583-15.162,3.833-17.078c0,0,3.25-2,6.417,0.5c0,0,4.833-2.64,8.5-1.257c0,0,8.917-1.284,16.167,0.299
	c0,0,13.162-1.583,20.956,0c0,0,16.544-2.875,19.919-2.208c0,0,3.375-1.333,4.625,5.167c0,0,4.625,9.875-2.875,13.75l-3.875,1.875"
	/>
<path fill="none" stroke="#999" stroke-miterlimit="10" d="M251.833,363.125c0,0,6.167,18.037,0,27.539
	c0,0,1.815,23.169,2.741,25.669c0,0-2.741,1.5-3.574,0c0,0-6.833-10.333-5.5-25l4.667-0.042l-9.833,0.042l3.754,0.13
	c0,0,0.256,5.025-0.546,6.495"/>
<path fill="none" stroke="#999" stroke-miterlimit="10" d="M351.167,328.828c0,0-7.5-2.328-9.667,0.922
	c0,0-1.833,14.75-1.167,19.417c0,0,5.699,14.333-3.234,23.5c0,0-7.599,7.833-14.933,8.833c0,0,11.5-0.333,18.5-7.167
	c0,0,6-1.5,4.583-22.167c0,0,0.09-17.044,1.583-20.5"/>
<path fill="none" stroke="#999" stroke-miterlimit="10" d="M335.667,370.167c0,0-5.833-1.667-19.333-0.667
	c0,0-34.167,0.5-43.667,2.667c0,0-3.304-2-7.819,7.667c0,0-1.819,11.5,0,14.833c0,0,1.652,1,2.819,2.333c0,0,0.333,3.667,3.667,6
	c0,0-4.833-11.667,2.5-22.5l1.667,1c0,0-7.667,7.833-2.833,21.5c0,0,0.167,2.5,2.833,4.667c0,0-0.667-23,5-22.5l1.333,0.667
	c0,0-6.667,2.667-4.167,21.833c0,0,8.406,1,10.286-1.5c0,0,5.62-19,0-20.833c0,0,6.714-2.333,2.547,21.333c0,0,16.833,0.333,20.5-2
	c0,0,3.167-15.5-0.167-19.167c0,0,4,0.5,2.5,19.5c0,0,26.167-2.167,33.333-4.333c0,0,10.667-2.333,9.833-6.833l0.046-64.333
	c0,0-7.713-7-27.047-6.583c0,0-5-2.268-1.5,20.741c0,0,7.167,8.926-0.167,19.467c0,0-3.167,3.708-7.333,5.042"/>
<path fill="none" stroke="#999" stroke-miterlimit="10" d="M265.658,395.215c0,0,0.088,20.285-1.619,24.952c0,0,0.46,1.5,2.96,1
	c0,0,5.083-9.583,5.583-16.75"/>
<path fill="none" stroke="#999" stroke-miterlimit="10" d="M275.007,407.236c0,0-0.257,24.139-1.507,28.014
	c0,0,0.375,3.5,4.125,2.5c0,0,5.625-14.71,5.25-29.886"/>
<path fill="none" stroke="#999" stroke-miterlimit="10" d="M331.479,403.75c0,0,1.448,13.115,4.198,13.365
	c0,0,1.823,1.01,2.823-1.24V402.5h2.5c0,0,0,11.918,2.5,17.668c0,0,2.5,7.332,4.875,8.332H351l-0.678-28.927"/>
<path fill="none" stroke="#999" stroke-miterlimit="10" d="M483.936,303.104c0,0-4.177,3.865-0.843,7.531
	c0,0-0.63,6.947,1.953,9.648c0,0-0.19,4.875,1.893,6.209c0,0-1.345,5.921,1.988,6.004c0,0,0.703,0.752,0.828,2.252
	c0,0,1.997,0.001,1.372-2.249c0,0-1.168-2.595-0.397-3.672c0,0,1.52-8.479,2.27-8.528l1.375,22.076l6.458,0.958
	c0,0-0.417,2,1.583,2.417c0,0-2.167,1.833-1.417,3.25c0,0-4.25,8.833,1.5,15.5c0,0,0.896,2.979-0.188,4.063
	c0,0-1.549,2.688,0.387,3.438c0,0-2.199,2-0.199,2.833V380c0,0,7,2.25,10-0.75V375c0,0,2.333-1.5,0-3.167c0,0,1.75-1.458,0-3.396
	c0,0-0.271-2.896,0.313-4.063c0,0,6.428-10.458,0.725-15.542c0,0,1.963-2-0.62-3.167c0,0,2.333-1.333,1.333-2.25
	c0,0-0.667-2.917,0.667-3.333c0,0,1.25,1.75,5.333-1.167c0,0,2.75-1.833,3.667-1.75c0.917,0.083,61.25,5.5,61.25,5.5
	s1.833,2.917,4.5,2.583c0,0-0.5,3.167,2.083,6c0,0-0.667,4.417,1.083,6.917c0,0-1.583,1.667,0,2.75c0,0-0.583,2.75,0.75,3.083
	c0,0,3.167,1.5,7.167,0.417c0,0,0.667-2.083,0.417-2.75c0,0,1.612-2.583,0.056-3.25c0,0,1.577-4.833,0.594-6.75
	c0,0,2.683,1.25,4.683,1V354l10.25,0.833c0,0,0.25,3.042,1.75,3.667c0,0-2.563,1.625-0.875,3.625c0,0-5.188,6.25-0.5,16.125
	c0,0,2.563,2.771,1.563,5.896c0,0-1.229,3.187,0.896,3.979c0,0-2.728,2.873-0.103,4.706c0,0-0.355,2.086,0.103,2.836
	c0,0,4.25,3.167,11.167,0c0,0,0.625-2.292,0.5-3.125c0,0,2.683-3.771,0.25-4.979c0,0,1.75-2,0.146-3.491
	c0,0-1.094-2.429,0.604-5.321c2.422-4.125,5-12.563,0.833-16c0,0,0.708-3.042-1.375-4.125c0,0,4.177-2.333,2.594-3.875l2.198-0.5
	V352c0,0,2.375-0.063,2.563-0.688c0,0,3.313,1.116,4.375-1.286c0,0,0.063-1.964,1.063-2.339c0,0,5.813-3.063,6.313-5.063
	l9.063-1.375c0,0-1.25,2.875,0.313,5c0,0-1.875,1.188,0,2.813c0,0-1.563,2.375,0,3.563c0,0,1.813,2.313,7.125,0.563
	c0,0,1.375-1.625,0.625-2.875c0,0,1.385-2.625,0.224-3.625c0,0,1.714-3.5,0.464-5l1-1.938l22.188-2.75c0,0,2.021,2.167,4.521,2.417
	c0,0,2.25,2.333,0,3.167c0,0,3.917,1.833,2.5,3.833c0,0-4.667,3.083-2.417,10.25c0,0,3.583,7.583,2.25,11.75
	c0,0-0.632,1.667,0.475,2.167c0,0-1.309,2,0.441,2.5c0,0-2.25,2.083,0,4.25c0,0,4.083,2.333,8.833,0.083c0,0,2.083-3,0.333-4
	c0,0,1.917-1.833,0.083-2.667c0,0,1.588-1.417,0.794-4.083c0,0-0.928-3.083,0.222-4.75c0,0,5.234-11.25,0.651-15.333
	c0,0-0.833-1.833-0.25-2.167c0,0,1.667-1.25,1.083-2.25l10.417-1.583c0,0,1.083,1.167,1.75-0.083c0,0,0.417-1.417,1.25-2.083
	c0,0,2.833,0.833,3.75-3.25c0,0,3.667-1.5,4.083-3.417l1.417-0.833l17.833-2.5c0,0,2.083,2.333,3.917,1.333
	c0,0,1.25,2.417,2.75,2.417c0,0,0.583,2.25,2.083,2.417c0,0-1.333,0.778-0.417,1.764c0,0-3.667,2.236-2.333,7.486
	c0,0,1.583,5.75,2.75,7.167c0,0,0.833,2.75,0,4.083c0,0-0.926,1.25,0.37,2.167c0,0-1.213,1.833,0,2.583c0,0,5.796,3.333,8.713,0.667
	c0,0,1.333-2.083,0.5-2.833c0,0,0.833-2.083-0.083-2.917c0,0-0.833-1.5-0.167-3.5c0,0,5.277-12.556,0.597-14.903
	c0,0,1.07-0.847,0.403-1.347c0,0,2.042-1.5,1.125-2.583l4.458,0.25V315c0,0,2.167,3.667,2.5,5.667c0,0,0.167,2.583-0.417,2.917
	L782,323.5c0,0,0.75-3.25,1.5-4.25c0,0,1.583-3.25,1.5-5.167c0,0,1.333-2.917,0.917-3.625c0,0,0.177-1.833,1.458-2.271
	c0,0,0.375-3.688,0-4.563c0,0,0.375-3.875-1.75-5.125"/>
<polyline fill="none" stroke="#999" stroke-miterlimit="10" points="497.5,324 497.5,339 502.5,340.167 502.5,332 611,341 
	610.917,350.5 615.5,350.5 615.5,340 502.5,330.375 502.625,324 618.833,332.5 619.25,350.5 "/>
<polyline fill="none" stroke="#999" stroke-miterlimit="10" points="623.5,346 623.5,355.5 626.5,355.5 626.5,346 "/>
<polyline fill="none" stroke="#999" stroke-miterlimit="10" points="628.5,338 628.5,351 634.083,350.5 633.75,340.583 
	705.5,331.667 705.667,339.5 710.167,339.167 709.5,324 632.313,332 "/>
<polyline fill="none" stroke="#999" stroke-miterlimit="10" points="717.5,330 717.5,338 721.5,337 721.5,329 772.5,322.667 
	772.5,330 775.5,329.25 775.5,316 722.917,321.75 "/>
<path fill="none" stroke="#999" stroke-miterlimit="10" d="M487.75,317.375c0,0-2.625,1.474,0,2.924l130.583,9.451
	c0,0,0.513-2.116-1.237-3.616l-128.346-8.759"/>
<path fill="none" stroke="#999" stroke-miterlimit="10" d="M485,303.167l128.24,5.458c0,0-2.74,3.375-1.365,6.75L483.5,308.958"
	/>
<path fill="none" stroke="#999" stroke-miterlimit="10" d="M498.208,311.583c0.99,0,1.792,0.951,1.792,2.125
	c0,1.174-0.802,2.125-1.792,2.125c-0.99,0-1.792-0.951-1.792-2.125C496.417,312.535,497.219,311.583,498.208,311.583"/>
<path fill="none" stroke="#999" stroke-miterlimit="10" d="M516.208,312.583c0.99,0,1.792,0.951,1.792,2.125
	c0,1.174-0.802,2.125-1.792,2.125s-1.792-0.951-1.792-2.125C514.417,313.535,515.219,312.583,516.208,312.583"/>
<path fill="none" stroke="#999" stroke-miterlimit="10" d="M536.208,313.583c0.99,0,1.792,0.951,1.792,2.125
	c0,1.174-0.802,2.125-1.792,2.125s-1.792-0.951-1.792-2.125C534.417,314.535,535.219,313.583,536.208,313.583"/>
<path fill="none" stroke="#999" stroke-miterlimit="10" d="M557.208,314.583c0.99,0,1.792,0.951,1.792,2.125
	c0,1.174-0.802,2.125-1.792,2.125s-1.792-0.951-1.792-2.125C555.417,315.535,556.219,314.583,557.208,314.583"/>
<path fill="none" stroke="#999" stroke-miterlimit="10" d="M579.208,315.583c0.99,0,1.792,0.951,1.792,2.125
	c0,1.174-0.802,2.125-1.792,2.125s-1.792-0.951-1.792-2.125C577.417,316.535,578.219,315.583,579.208,315.583"/>
<path fill="none" stroke="#999" stroke-miterlimit="10" d="M602.208,317.583c0.99,0,1.792,0.951,1.792,2.125
	c0,1.174-0.802,2.125-1.792,2.125s-1.792-0.951-1.792-2.125C600.417,318.535,601.219,317.583,602.208,317.583"/>
<path fill="none" stroke="#999" stroke-miterlimit="10" d="M644.208,316.583c0.99,0,1.792,0.951,1.792,2.125
	c0,1.174-0.802,2.125-1.792,2.125s-1.792-0.951-1.792-2.125C642.417,317.535,643.219,316.583,644.208,316.583"/>
<path fill="none" stroke="#999" stroke-miterlimit="10" d="M668.208,314.583c0.99,0,1.792,0.951,1.792,2.125
	c0,1.174-0.802,2.125-1.792,2.125s-1.792-0.951-1.792-2.125C666.417,315.535,667.219,314.583,668.208,314.583"/>
<path fill="none" stroke="#999" stroke-miterlimit="10" d="M690.208,312.583c0.99,0,1.792,0.951,1.792,2.125
	c0,1.174-0.802,2.125-1.792,2.125s-1.792-0.951-1.792-2.125C688.417,313.535,689.219,312.583,690.208,312.583"/>
<path fill="none" stroke="#999" stroke-miterlimit="10" d="M710.208,310.583c0.99,0,1.792,0.951,1.792,2.125
	c0,1.174-0.802,2.125-1.792,2.125s-1.792-0.951-1.792-2.125C708.417,311.535,709.219,310.583,710.208,310.583"/>
<path fill="none" stroke="#999" stroke-miterlimit="10" d="M731.208,309.583c0.99,0,1.792,0.951,1.792,2.125
	c0,1.174-0.802,2.125-1.792,2.125s-1.792-0.951-1.792-2.125C729.417,310.535,730.219,309.583,731.208,309.583"/>
<path fill="none" stroke="#999" stroke-miterlimit="10" d="M747.208,307.583c0.99,0,1.792,0.951,1.792,2.125
	c0,1.174-0.802,2.125-1.792,2.125s-1.792-0.951-1.792-2.125C745.417,308.535,746.219,307.583,747.208,307.583"/>
<path fill="none" stroke="#999" stroke-miterlimit="10" d="M763.208,306.583c0.99,0,1.792,0.951,1.792,2.125
	c0,1.174-0.802,2.125-1.792,2.125s-1.792-0.951-1.792-2.125C761.417,307.535,762.219,306.583,763.208,306.583"/>
<path fill="none" stroke="#999" stroke-miterlimit="10" d="M777.208,304.583c0.99,0,1.792,0.951,1.792,2.125
	c0,1.174-0.802,2.125-1.792,2.125s-1.792-0.951-1.792-2.125C775.417,305.535,776.219,304.583,777.208,304.583"/>
<path fill="none" stroke="#999" stroke-miterlimit="10" d="M617.083,308.583c0,0-4.833,1.917-3.333,8.125
	c0,0-3,3.792,0.167,5.125c0,0,2.083,1.083,2.667,0.417c0,0-0.5,1.833,0.5,3c0,0,2.502,2.077,2.167,6.417c0,0,1.833,2.417,2.75,7.417
	c0,0,0,5.583,1.5,5.75c0,0,2.333,0.667,3.917-7.333c0,0,2.333-4.75,4.417-8.917c0,0,2.928-3.5,2.839-5.667
	c0,0,2.245-0.917,2.328-3.208c0,0,1.917-5.125,0-8.625c0,0-1-4.458-5.583-1.813c0,0-10.667,0.854-12.167,0l-1.25-0.839"/>
<path fill="none" stroke="#999" stroke-miterlimit="10" d="M618.403,321.833c0,0,4.013,1.583,7.43,0c0,0,3.333,1.167,5.917,0
	c0,0-4.167,2.583-10.667,2.167"/>
<path fill="none" stroke="#999" stroke-miterlimit="10" d="M637,308.432L780.25,298c0,0,10.785-0.068,4.101,5.216
	c0,0-141.351,11.784-144.518,12.784"/>
<path fill="none" stroke="#999" stroke-miterlimit="10" d="M635.5,324.5l147.731-14.042c0,0,2.731,2.042,0,3.042
	c0,0-145.898,15.5-150.231,16.25"/>
<polyline fill="none" stroke="#999" stroke-miterlimit="10" points="495.333,302.25 647.167,295.833 664.583,295.667 765,298.5 
	"/>
<path fill="none" stroke="#999" stroke-miterlimit="10" d="M787.688,299.167c0,0,9.219-2.417,12.219-0.75
	c0,0,12.797-1.042,10.714,6.125c0,0-1.185,3.438-1.185,5.021c0,0-1.509,25.177-0.842,27.76c0,0,1.703,3.005,2.224,3.339
	c0,0-4.231,1.253-4.981-7.581l-5.918,1.085l0.249,9.417c0,0-3.854-0.25-3.938-9.416l-18.729-0.833V326l14.667,1c0,0-1-11.5,3-12.167
	c0,0,3.5,0.083,6.167-1c0,0,3-1.083,5.167-6.833"/>
<path fill="none" stroke="#999" stroke-miterlimit="10" d="M636,297l-90.667,5.25c0,0-2.086,1.561-1.583,2.5
	c0,0,13.333,1.917,18.667,1.25l95.917-7.5l38.479,0.583c0,0,2.563-3.708,4.271,0.833l29.167,0.833"/>
<path fill="none" stroke="#999" stroke-miterlimit="10" d="M644.979,301.083c1.162,0,2.104,0.895,2.104,2
	c0,1.105-0.942,2-2.104,2c-1.162,0-2.104-0.895-2.104-2C642.875,301.979,643.817,301.083,644.979,301.083"/>
<path fill="none" stroke="#999" stroke-miterlimit="10" d="M614.979,303.083c1.162,0,2.104,0.895,2.104,2
	c0,1.105-0.942,2-2.104,2c-1.162,0-2.104-0.895-2.104-2C612.875,303.979,613.817,303.083,614.979,303.083"/>
<path fill="none" stroke="#999" stroke-miterlimit="10" d="M663.979,299.083c1.162,0,2.104,0.895,2.104,2
	c0,1.105-0.942,2-2.104,2c-1.162,0-2.104-0.895-2.104-2C661.875,299.979,662.817,299.083,663.979,299.083"/>
<path fill="none" stroke="#999" stroke-miterlimit="10" d="M669.979,299.083c1.162,0,2.104,0.895,2.104,2
	c0,1.105-0.942,2-2.104,2c-1.162,0-2.104-0.895-2.104-2C667.875,299.979,668.817,299.083,669.979,299.083"/>
<path fill="none" stroke="#999" stroke-miterlimit="10" d="M673.979,299.083c1.162,0,2.104,0.895,2.104,2
	c0,1.105-0.942,2-2.104,2c-1.162,0-2.104-0.895-2.104-2C671.875,299.979,672.817,299.083,673.979,299.083"/>
<path fill="none" stroke="#999" stroke-miterlimit="10" d="M677.979,299.083c1.162,0,2.104,0.895,2.104,2
	c0,1.105-0.942,2-2.104,2c-1.162,0-2.104-0.895-2.104-2C675.875,299.979,676.817,299.083,677.979,299.083"/>
<path fill="none" stroke="#999" stroke-miterlimit="10" d="M681.979,299.083c1.162,0,2.104,0.895,2.104,2
	c0,1.105-0.942,2-2.104,2c-1.162,0-2.104-0.895-2.104-2C679.875,299.979,680.817,299.083,681.979,299.083"/>
<line fill="none" stroke="#999" stroke-miterlimit="10" x1="0" y1="368" x2="11.5" y2="367.333"/>
<line fill="none" stroke="#999" stroke-miterlimit="10" x1="47.125" y1="363.125" x2="126.776" y2="357.167"/>
<line fill="none" stroke="#999" stroke-miterlimit="10" x1="-0.25" y1="373" x2="11.5" y2="372"/>
<line fill="none" stroke="#999" stroke-miterlimit="10" x1="49" y1="368.833" x2="126.776" y2="363.125"/>
<line fill="none" stroke="#999" stroke-miterlimit="10" x1="96.328" y1="365.36" x2="135" y2="380.1"/>
<line fill="none" stroke="#999" stroke-miterlimit="10" x1="255.863" y1="368" x2="329.5" y2="360.271"/>
<line fill="none" stroke="#999" stroke-miterlimit="10" x1="415.333" y1="349.833" x2="419.667" y2="349.667"/>
<line fill="none" stroke="#999" stroke-miterlimit="10" x1="434.262" y1="346.625" x2="446.5" y2="345.667"/>
<line fill="none" stroke="#999" stroke-miterlimit="10" x1="453.333" y1="344.167" x2="490.441" y2="340.667"/>
<line fill="none" stroke="#999" stroke-miterlimit="10" x1="359.417" y1="379.333" x2="496.417" y2="354.76"/>
<line fill="none" stroke="#999" stroke-miterlimit="10" x1="518.272" y1="351" x2="568.583" y2="342.417"/>
<line fill="none" stroke="#999" stroke-miterlimit="10" x1="36.167" y1="473" x2="135" y2="454.333"/>
<line fill="none" stroke="#999" stroke-miterlimit="10" x1="163.667" y1="449.917" x2="221.5" y2="437.5"/>
<line fill="none" stroke="#999" stroke-miterlimit="10" x1="240.333" y1="434" x2="273.5" y2="428.414"/>
<line fill="none" stroke="#999" stroke-miterlimit="10" x1="284.333" y1="425.906" x2="335.677" y2="417.115"/>
<line fill="none" stroke="#999" stroke-miterlimit="10" x1="353.604" y1="414.037" x2="612.875" y2="364.135"/>
<line fill="none" stroke="#999" stroke-miterlimit="10" x1="637.852" y1="360" x2="696.806" y2="348.811"/>
<line fill="none" stroke="#999" stroke-miterlimit="10" x1="712" y1="346" x2="725.333" y2="343.166"/>
<line fill="none" stroke="#999" stroke-miterlimit="10" x1="60" y1="521" x2="613.744" y2="393.833"/>
<line fill="none" stroke="#999" stroke-miterlimit="10" x1="635.5" y1="388" x2="698.684" y2="371.81"/>
<line fill="none" stroke="#999" stroke-miterlimit="10" x1="713.5" y1="368.75" x2="759.333" y2="358.25"/>
<line fill="none" stroke="#999" stroke-miterlimit="10" x1="774.03" y1="354.405" x2="852.5" y2="336.328"/>
<line fill="none" stroke="#999" stroke-miterlimit="10" x1="268.5" y1="547.667" x2="910.167" y2="341.167"/>
<line fill="none" stroke="#999" stroke-miterlimit="10" x1="526.686" y1="547.667" x2="966" y2="354.405"/>
<line fill="none" stroke="#999" stroke-miterlimit="10" x1="789.625" y1="547.667" x2="975.333" y2="406.333"/>
<line fill="none" stroke="#999" stroke-miterlimit="10" x1="125.5" y1="434" x2="135" y2="439.583"/>
<line fill="none" stroke="#999" stroke-miterlimit="10" x1="160.608" y1="454.333" x2="347.997" y2="547.667"/>
<line fill="none" stroke="#999" stroke-miterlimit="10" x1="244.121" y1="419.442" x2="273.5" y2="428.414"/>
<line fill="none" stroke="#999" stroke-miterlimit="10" x1="282.893" y1="434" x2="612.465" y2="547.667"/>
<line fill="none" stroke="#999" stroke-miterlimit="10" x1="363.333" y1="414.037" x2="857" y2="542.5"/>
<line fill="none" stroke="#999" stroke-miterlimit="10" x1="359.417" y1="375" x2="935.625" y2="493"/>
<line fill="none" stroke="#999" stroke-miterlimit="10" x1="406" y1="361.75" x2="500" y2="377"/>
<line fill="none" stroke="#999" stroke-miterlimit="10" x1="516.208" y1="378" x2="617.083" y2="395.25"/>
<line fill="none" stroke="#999" stroke-miterlimit="10" x1="631.75" y1="397.074" x2="964.75" y2="449.75"/>
<line fill="none" stroke="#999" stroke-miterlimit="10" x1="450.833" y1="346.708" x2="497.5" y2="353"/>
<line fill="none" stroke="#999" stroke-miterlimit="10" x1="518" y1="354.76" x2="591.177" y2="364.135"/>
<line fill="none" stroke="#999" stroke-miterlimit="10" x1="637.852" y1="370" x2="696" y2="376.333"/>
<line fill="none" stroke="#999" stroke-miterlimit="10" x1="706.867" y1="378" x2="980.167" y2="410.5"/>
<line fill="none" stroke="#999" stroke-miterlimit="10" x1="713.5" y1="357.333" x2="964.75" y2="382.333"/>
<line fill="none" stroke="#999" stroke-miterlimit="10" x1="722.333" y1="343.166" x2="754" y2="346"/>
<line fill="none" stroke="#999" stroke-miterlimit="10" x1="775.5" y1="345.367" x2="962.5" y2="363.5"/>
<line fill="none" stroke="#999" stroke-miterlimit="10" x1="818.432" y1="339.5" x2="949.962" y2="349.854"/>
<polyline fill="none" stroke="#999" stroke-miterlimit="10" points="393,0 435.875,14.333 465.802,0.25 "/>
<polyline fill="none" stroke="#999" stroke-miterlimit="10" points="378.333,0 436,20.167 483.899,0.25 "/>
<polyline fill="none" stroke="#999" stroke-miterlimit="10" points="352.5,0 435.375,28.75 503.403,0.25 "/>
<polyline fill="none" stroke="#999" stroke-miterlimit="10" points="337.422,0.25 435.333,32.833 518.036,0.25 "/>
<polyline fill="none" stroke="#999" stroke-miterlimit="10" points="312.658,0.25 435.625,39.5 537.375,0 "/>
<polyline fill="none" stroke="#999" stroke-miterlimit="10" points="293.833,0 435.667,43.833 549,0 "/>
<polyline fill="none" stroke="#999" stroke-miterlimit="10" points="272,0 436.333,49.833 565.337,0.509 "/>
<g>
</g>
<g>
</g>
<g>
</g>
<g>
</g>
<g>
</g>
<g>
</g>
<g>
</g>
<g>
</g>
<g>
</g>
<g>
</g>
<g>
</g>
<g>
</g>
<g>
</g>
<g>
</g>
<g>
</g>
</svg>
